<mxfile host="app.diagrams.net" agent="Mozilla/5.0 (Macintosh; Intel Mac OS X 10_15_7) AppleWebKit/605.1.15 (KHTML, like Gecko) Version/17.2.1 Safari/605.1.15" version="24.7.13">
  <diagram name="Sida-1" id="KSeBiR431f5CJMEnviyI">
    <mxGraphModel dx="2232" dy="761" grid="1" gridSize="10" guides="1" tooltips="1" connect="1" arrows="1" fold="1" page="1" pageScale="1" pageWidth="827" pageHeight="1169" math="0" shadow="0">
      <root>
        <mxCell id="0" />
        <mxCell id="1" parent="0" />
        <mxCell id="dFJLg06JTGum-NU4I3H7-10" style="edgeStyle=orthogonalEdgeStyle;rounded=0;orthogonalLoop=1;jettySize=auto;html=1;entryX=0.5;entryY=0;entryDx=0;entryDy=0;" edge="1" parent="1" source="dFJLg06JTGum-NU4I3H7-1" target="dFJLg06JTGum-NU4I3H7-9">
          <mxGeometry relative="1" as="geometry" />
        </mxCell>
        <mxCell id="dFJLg06JTGum-NU4I3H7-1" value="" style="ellipse;whiteSpace=wrap;html=1;aspect=fixed;fillColor=#000000;" vertex="1" parent="1">
          <mxGeometry x="185" y="70" width="20" height="20" as="geometry" />
        </mxCell>
        <mxCell id="dFJLg06JTGum-NU4I3H7-4" value="" style="endArrow=none;html=1;rounded=0;" edge="1" parent="1">
          <mxGeometry width="50" height="50" relative="1" as="geometry">
            <mxPoint x="400" y="800" as="sourcePoint" />
            <mxPoint x="400" as="targetPoint" />
          </mxGeometry>
        </mxCell>
        <mxCell id="dFJLg06JTGum-NU4I3H7-6" value="&lt;b&gt;&lt;font style=&quot;font-size: 24px;&quot;&gt;Bankomaten&lt;/font&gt;&lt;/b&gt;" style="text;html=1;align=center;verticalAlign=middle;whiteSpace=wrap;rounded=0;" vertex="1" parent="1">
          <mxGeometry x="120" y="23" width="150" height="30" as="geometry" />
        </mxCell>
        <mxCell id="dFJLg06JTGum-NU4I3H7-8" value="&lt;b&gt;&lt;font style=&quot;font-size: 24px;&quot;&gt;Användaren&lt;/font&gt;&lt;/b&gt;" style="text;html=1;align=center;verticalAlign=middle;resizable=0;points=[];autosize=1;strokeColor=none;fillColor=none;" vertex="1" parent="1">
          <mxGeometry x="539" y="20" width="160" height="40" as="geometry" />
        </mxCell>
        <mxCell id="dFJLg06JTGum-NU4I3H7-12" value="" style="edgeStyle=orthogonalEdgeStyle;rounded=0;orthogonalLoop=1;jettySize=auto;html=1;" edge="1" parent="1" source="dFJLg06JTGum-NU4I3H7-9" target="dFJLg06JTGum-NU4I3H7-11">
          <mxGeometry relative="1" as="geometry" />
        </mxCell>
        <mxCell id="dFJLg06JTGum-NU4I3H7-9" value="Deklarera kortPIN, uttagsbelopp" style="rounded=1;whiteSpace=wrap;html=1;" vertex="1" parent="1">
          <mxGeometry x="135" y="120" width="120" height="60" as="geometry" />
        </mxCell>
        <mxCell id="dFJLg06JTGum-NU4I3H7-14" value="" style="edgeStyle=orthogonalEdgeStyle;rounded=0;orthogonalLoop=1;jettySize=auto;html=1;" edge="1" parent="1" source="dFJLg06JTGum-NU4I3H7-11" target="dFJLg06JTGum-NU4I3H7-13">
          <mxGeometry relative="1" as="geometry" />
        </mxCell>
        <mxCell id="dFJLg06JTGum-NU4I3H7-11" value="Skapa ett objekt scanner av klassen Scanner" style="whiteSpace=wrap;html=1;rounded=1;" vertex="1" parent="1">
          <mxGeometry x="135" y="200" width="120" height="60" as="geometry" />
        </mxCell>
        <mxCell id="dFJLg06JTGum-NU4I3H7-19" value="" style="edgeStyle=orthogonalEdgeStyle;rounded=0;orthogonalLoop=1;jettySize=auto;html=1;" edge="1" parent="1" source="dFJLg06JTGum-NU4I3H7-13" target="dFJLg06JTGum-NU4I3H7-18">
          <mxGeometry relative="1" as="geometry" />
        </mxCell>
        <mxCell id="dFJLg06JTGum-NU4I3H7-13" value="Användare matar in kort" style="whiteSpace=wrap;html=1;rounded=1;" vertex="1" parent="1">
          <mxGeometry x="559" y="270" width="120" height="60" as="geometry" />
        </mxCell>
        <mxCell id="dFJLg06JTGum-NU4I3H7-15" value="" style="endArrow=none;dashed=1;html=1;dashPattern=1 3;strokeWidth=2;rounded=0;" edge="1" parent="1">
          <mxGeometry width="50" height="50" relative="1" as="geometry">
            <mxPoint x="679" y="270" as="sourcePoint" />
            <mxPoint x="710" y="230" as="targetPoint" />
          </mxGeometry>
        </mxCell>
        <mxCell id="dFJLg06JTGum-NU4I3H7-16" value="Anta att det finns en databas av kortnummer, PIN och saldo" style="rounded=1;whiteSpace=wrap;html=1;" vertex="1" parent="1">
          <mxGeometry x="660" y="140" width="130" height="80" as="geometry" />
        </mxCell>
        <mxCell id="dFJLg06JTGum-NU4I3H7-17" value="" style="endArrow=classic;html=1;rounded=0;" edge="1" parent="1">
          <mxGeometry width="50" height="50" relative="1" as="geometry">
            <mxPoint x="710" y="230" as="sourcePoint" />
            <mxPoint x="710" y="220" as="targetPoint" />
          </mxGeometry>
        </mxCell>
        <mxCell id="dFJLg06JTGum-NU4I3H7-21" value="" style="edgeStyle=orthogonalEdgeStyle;rounded=0;orthogonalLoop=1;jettySize=auto;html=1;" edge="1" parent="1" source="dFJLg06JTGum-NU4I3H7-18" target="dFJLg06JTGum-NU4I3H7-20">
          <mxGeometry relative="1" as="geometry" />
        </mxCell>
        <mxCell id="dFJLg06JTGum-NU4I3H7-18" value="Användaren skriver in PIN-kod" style="whiteSpace=wrap;html=1;rounded=1;" vertex="1" parent="1">
          <mxGeometry x="559" y="350" width="120" height="60" as="geometry" />
        </mxCell>
        <mxCell id="dFJLg06JTGum-NU4I3H7-27" style="edgeStyle=orthogonalEdgeStyle;rounded=0;orthogonalLoop=1;jettySize=auto;html=1;entryX=0;entryY=0.5;entryDx=0;entryDy=0;" edge="1" parent="1" source="dFJLg06JTGum-NU4I3H7-20" target="dFJLg06JTGum-NU4I3H7-22">
          <mxGeometry relative="1" as="geometry">
            <Array as="points">
              <mxPoint x="195" y="470" />
            </Array>
          </mxGeometry>
        </mxCell>
        <mxCell id="dFJLg06JTGum-NU4I3H7-40" style="edgeStyle=orthogonalEdgeStyle;rounded=0;orthogonalLoop=1;jettySize=auto;html=1;entryX=0.5;entryY=0;entryDx=0;entryDy=0;" edge="1" parent="1" source="dFJLg06JTGum-NU4I3H7-20" target="dFJLg06JTGum-NU4I3H7-30">
          <mxGeometry relative="1" as="geometry">
            <mxPoint x="90" y="490" as="targetPoint" />
          </mxGeometry>
        </mxCell>
        <mxCell id="dFJLg06JTGum-NU4I3H7-20" value="&lt;font style=&quot;font-size: 9px;&quot;&gt;Kontroll av&lt;/font&gt;&lt;div&gt;&lt;font style=&quot;font-size: 9px;&quot;&gt;PIN&lt;/font&gt;&lt;/div&gt;" style="rhombus;whiteSpace=wrap;html=1;rounded=1;" vertex="1" parent="1">
          <mxGeometry x="155" y="340" width="80" height="80" as="geometry" />
        </mxCell>
        <mxCell id="dFJLg06JTGum-NU4I3H7-37" value="" style="edgeStyle=orthogonalEdgeStyle;rounded=0;orthogonalLoop=1;jettySize=auto;html=1;" edge="1" parent="1" source="dFJLg06JTGum-NU4I3H7-22" target="dFJLg06JTGum-NU4I3H7-36">
          <mxGeometry relative="1" as="geometry">
            <Array as="points">
              <mxPoint x="619" y="550" />
            </Array>
          </mxGeometry>
        </mxCell>
        <mxCell id="dFJLg06JTGum-NU4I3H7-22" value="Mata in&lt;div&gt;uttagsbelopp och spara i variabel&lt;/div&gt;" style="whiteSpace=wrap;html=1;rounded=1;" vertex="1" parent="1">
          <mxGeometry x="559" y="440" width="120" height="60" as="geometry" />
        </mxCell>
        <mxCell id="dFJLg06JTGum-NU4I3H7-24" value="[kort == kortPIN]" style="text;html=1;align=center;verticalAlign=middle;whiteSpace=wrap;rounded=0;" vertex="1" parent="1">
          <mxGeometry x="200" y="440" width="105" height="30" as="geometry" />
        </mxCell>
        <mxCell id="dFJLg06JTGum-NU4I3H7-45" style="edgeStyle=orthogonalEdgeStyle;rounded=0;orthogonalLoop=1;jettySize=auto;html=1;exitX=0.5;exitY=1;exitDx=0;exitDy=0;entryX=0.5;entryY=0;entryDx=0;entryDy=0;" edge="1" parent="1" source="dFJLg06JTGum-NU4I3H7-28" target="dFJLg06JTGum-NU4I3H7-32">
          <mxGeometry relative="1" as="geometry" />
        </mxCell>
        <mxCell id="dFJLg06JTGum-NU4I3H7-28" value="Mata ut kortet" style="whiteSpace=wrap;html=1;rounded=1;" vertex="1" parent="1">
          <mxGeometry x="-90" y="640" width="120" height="40" as="geometry" />
        </mxCell>
        <mxCell id="dFJLg06JTGum-NU4I3H7-41" value="" style="edgeStyle=orthogonalEdgeStyle;rounded=0;orthogonalLoop=1;jettySize=auto;html=1;" edge="1" parent="1" source="dFJLg06JTGum-NU4I3H7-30" target="dFJLg06JTGum-NU4I3H7-28">
          <mxGeometry relative="1" as="geometry" />
        </mxCell>
        <mxCell id="dFJLg06JTGum-NU4I3H7-30" value="Skriv ut felmeddelande&lt;div&gt;&quot;Fel eller ogiltig PIN-kod&quot;&lt;/div&gt;" style="whiteSpace=wrap;html=1;rounded=1;" vertex="1" parent="1">
          <mxGeometry x="-90" y="490" width="120" height="80" as="geometry" />
        </mxCell>
        <mxCell id="dFJLg06JTGum-NU4I3H7-32" value="" style="ellipse;whiteSpace=wrap;html=1;rounded=1;" vertex="1" parent="1">
          <mxGeometry x="-45" y="770" width="30" height="30" as="geometry" />
        </mxCell>
        <mxCell id="dFJLg06JTGum-NU4I3H7-34" value="" style="ellipse;whiteSpace=wrap;html=1;aspect=fixed;fillColor=#000000;" vertex="1" parent="1">
          <mxGeometry x="-40" y="775" width="20" height="20" as="geometry" />
        </mxCell>
        <mxCell id="dFJLg06JTGum-NU4I3H7-35" value="[kort != kortPIN]" style="text;html=1;align=center;verticalAlign=middle;whiteSpace=wrap;rounded=0;" vertex="1" parent="1">
          <mxGeometry x="56" y="348" width="105" height="30" as="geometry" />
        </mxCell>
        <mxCell id="dFJLg06JTGum-NU4I3H7-39" value="" style="edgeStyle=orthogonalEdgeStyle;rounded=0;orthogonalLoop=1;jettySize=auto;html=1;" edge="1" parent="1" source="dFJLg06JTGum-NU4I3H7-36" target="dFJLg06JTGum-NU4I3H7-38">
          <mxGeometry relative="1" as="geometry" />
        </mxCell>
        <mxCell id="dFJLg06JTGum-NU4I3H7-48" value="" style="edgeStyle=orthogonalEdgeStyle;rounded=0;orthogonalLoop=1;jettySize=auto;html=1;" edge="1" parent="1" source="dFJLg06JTGum-NU4I3H7-36" target="dFJLg06JTGum-NU4I3H7-47">
          <mxGeometry relative="1" as="geometry" />
        </mxCell>
        <mxCell id="dFJLg06JTGum-NU4I3H7-36" value="&lt;font style=&quot;font-size: 9px;&quot;&gt;Kontroll&lt;/font&gt;&lt;div&gt;&lt;font style=&quot;font-size: 9px;&quot;&gt;av saldo&lt;/font&gt;&lt;/div&gt;" style="rhombus;whiteSpace=wrap;html=1;rounded=1;" vertex="1" parent="1">
          <mxGeometry x="280" y="510" width="80" height="80" as="geometry" />
        </mxCell>
        <mxCell id="dFJLg06JTGum-NU4I3H7-42" style="edgeStyle=orthogonalEdgeStyle;rounded=0;orthogonalLoop=1;jettySize=auto;html=1;entryX=1;entryY=0.5;entryDx=0;entryDy=0;" edge="1" parent="1" source="dFJLg06JTGum-NU4I3H7-38" target="dFJLg06JTGum-NU4I3H7-28">
          <mxGeometry relative="1" as="geometry" />
        </mxCell>
        <mxCell id="dFJLg06JTGum-NU4I3H7-38" value="Mata ut pengar, lika mycket som uttagsbelopp" style="rounded=1;whiteSpace=wrap;html=1;" vertex="1" parent="1">
          <mxGeometry x="260" y="630" width="120" height="60" as="geometry" />
        </mxCell>
        <mxCell id="dFJLg06JTGum-NU4I3H7-46" value="[saldo &amp;gt; uttagsbelopp ||&lt;div&gt;saldo == uttagsbelopp]&lt;/div&gt;" style="text;html=1;align=center;verticalAlign=middle;whiteSpace=wrap;rounded=0;" vertex="1" parent="1">
          <mxGeometry x="143" y="590" width="200" height="30" as="geometry" />
        </mxCell>
        <mxCell id="dFJLg06JTGum-NU4I3H7-50" style="edgeStyle=orthogonalEdgeStyle;rounded=0;orthogonalLoop=1;jettySize=auto;html=1;entryX=0.75;entryY=0;entryDx=0;entryDy=0;" edge="1" parent="1" source="dFJLg06JTGum-NU4I3H7-47" target="dFJLg06JTGum-NU4I3H7-28">
          <mxGeometry relative="1" as="geometry">
            <Array as="points">
              <mxPoint x="130" y="610" />
              <mxPoint y="610" />
            </Array>
          </mxGeometry>
        </mxCell>
        <mxCell id="dFJLg06JTGum-NU4I3H7-47" value="Skriv ut felmeddelande&lt;div&gt;&quot;Inte tillräckligt med saldo&quot;&lt;/div&gt;" style="whiteSpace=wrap;html=1;rounded=1;" vertex="1" parent="1">
          <mxGeometry x="70" y="515" width="120" height="70" as="geometry" />
        </mxCell>
        <mxCell id="dFJLg06JTGum-NU4I3H7-51" value="[saldo &amp;lt;&lt;div&gt;uttagsbelopp]&lt;/div&gt;" style="text;html=1;align=center;verticalAlign=middle;resizable=0;points=[];autosize=1;strokeColor=none;fillColor=none;" vertex="1" parent="1">
          <mxGeometry x="190" y="502" width="100" height="40" as="geometry" />
        </mxCell>
      </root>
    </mxGraphModel>
  </diagram>
</mxfile>
